<?xml version="1.0" encoding="utf-8"?>
<!-- Generator: Adobe Illustrator 21.0.2, SVG Export Plug-In . SVG Version: 6.00 Build 0)  -->
<svg version="1.1" id="artwork" xmlns="http://www.w3.org/2000/svg" xmlns:xlink="http://www.w3.org/1999/xlink" x="0px" y="0px"
	 viewBox="0 0 152.7 49.3" style="enable-background:new 0 0 152.7 49.3;" xml:space="preserve">
<style type="text/css">
	.st0{fill:#FFFFFF;fill-opacity:0;}
	.st1{fill:#FAFCF8;}
	.st2{fill:#FFFFFF;stroke:#FFFFFF;stroke-width:0.2;stroke-miterlimit:10;}
	.st3{fill:#FFFFFF;}
	.st4{fill:url(#SVGID_1_);}
	.st5{fill:url(#SVGID_2_);}
	.st6{fill:url(#SVGID_3_);}
	.st7{fill:url(#SVGID_4_);}
	.st8{opacity:0.2;enable-background:new    ;}
	.st9{opacity:0.12;enable-background:new    ;}
	.st10{opacity:0.25;fill:#FFFFFF;enable-background:new    ;}
</style>
<g>
	<rect x="-8" y="-7.9" class="st0" width="168.7" height="65.3"/>
	<g>
		<path d="M144.4,46.5H8.4c-3,0-5.4-2.4-5.4-5.4V8.4C3,5.4,5.4,3,8.4,3h136c3,0,5.4,2.4,5.4,5.4V41C149.8,44,147.4,46.5,144.4,46.5z
			"/>
	</g>
	<g>
		<g>
			<path class="st1" d="M144.4,3.8c2.5,0,4.6,2.1,4.6,4.6V41c0,2.5-2.1,4.6-4.6,4.6H8.4c-2.5,0-4.6-2.1-4.6-4.6V8.4
				c0-2.5,2.1-4.6,4.6-4.6L144.4,3.8 M144.4,3H8.4C5.4,3,3,5.4,3,8.4V41c0,3,2.4,5.4,5.4,5.4h136c3,0,5.4-2.4,5.4-5.4V8.4
				C149.8,5.4,147.4,3,144.4,3L144.4,3z"/>
		</g>
	</g>
	<g>
		<path class="st2" d="M54.5,14.1c0,0.9-0.3,1.6-0.8,2.2c-0.6,0.6-1.4,1-2.4,1c-0.9,0-1.7-0.3-2.4-1c-0.7-0.7-1-1.5-1-2.4
			c0-1,0.3-1.8,1-2.4c0.7-0.7,1.5-1,2.4-1c0.5,0,0.9,0.1,1.3,0.3c0.4,0.2,0.8,0.4,1,0.7L53.1,12c-0.4-0.5-1-0.8-1.8-0.8
			c-0.7,0-1.3,0.2-1.8,0.7s-0.8,1.1-0.8,1.9s0.3,1.4,0.8,1.9s1.1,0.7,1.8,0.7s1.3-0.2,1.8-0.7c0.3-0.3,0.5-0.8,0.5-1.3h-2.4v-0.8
			h3.2C54.5,13.8,54.5,14,54.5,14.1z"/>
		<path class="st2" d="M59.5,11.4h-3v2.1h2.7v0.8h-2.7v2.1h3v0.8h-3.8v-6.5h3.8V11.4z"/>
		<path class="st2" d="M63.1,17.1h-0.8v-5.7h-1.8v-0.8H65v0.8h-1.8v5.7H63.1z"/>
		<path class="st2" d="M68.1,17.1v-6.5H69v6.5H68.1z"/>
		<path class="st2" d="M72.7,17.1h-0.8v-5.7H70v-0.8h4.5v0.8h-1.8V17.1z"/>
		<path class="st2" d="M83,16.3c-0.6,0.7-1.4,1-2.4,1s-1.8-0.3-2.4-1c-0.6-0.7-1-1.5-1-2.4s0.3-1.8,1-2.4c0.6-0.7,1.4-1,2.4-1
			c0.9,0,1.7,0.3,2.4,1c0.6,0.7,1,1.5,1,2.4C84,14.8,83.7,15.6,83,16.3z M78.8,15.7c0.5,0.5,1.1,0.7,1.8,0.7s1.3-0.2,1.8-0.7
			c0.5-0.5,0.7-1.1,0.7-1.9s-0.2-1.4-0.7-1.9s-1.1-0.7-1.8-0.7s-1.3,0.2-1.8,0.7s-0.7,1.1-0.7,1.9S78.4,15.2,78.8,15.7z"/>
		<path class="st2" d="M85.2,17.1v-6.5h1l3.2,5.1l0,0v-1.3v-3.8h0.8v6.5h-0.9L86,11.8l0,0v1.3v4.1h-0.8V17.1z"/>
	</g>
	<path class="st3" d="M77.1,26.6c-2.6,0-4.6,1.9-4.6,4.6s2.1,4.6,4.6,4.6c2.6,0,4.6-2,4.6-4.6S79.6,26.6,77.1,26.6z M77.1,34.1
		c-1.4,0-2.6-1.2-2.6-2.8c0-1.7,1.2-2.8,2.6-2.8s2.6,1.1,2.6,2.8C79.7,32.9,78.5,34.1,77.1,34.1z M66.9,26.6c-2.6,0-4.6,1.9-4.6,4.6
		s2.1,4.6,4.6,4.6c2.6,0,4.6-2,4.6-4.6C71.6,28.6,69.5,26.6,66.9,26.6z M66.9,34.1c-1.4,0-2.6-1.2-2.6-2.8c0-1.7,1.2-2.8,2.6-2.8
		s2.6,1.1,2.6,2.8C69.5,32.9,68.3,34.1,66.9,34.1z M54.9,28.1v2h4.7c-0.1,1.1-0.5,1.9-1.1,2.5c-0.7,0.7-1.8,1.4-3.6,1.4
		c-2.9,0-5.2-2.3-5.2-5.2s2.3-5.2,5.2-5.2c1.6,0,2.7,0.6,3.5,1.4l1.4-1.4c-1.2-1.1-2.7-2-4.9-2c-4,0-7.3,3.2-7.3,7.2
		s3.3,7.2,7.3,7.2c2.1,0,3.8-0.7,5-2c1.3-1.3,1.7-3.1,1.7-4.6c0-0.5,0-0.9-0.1-1.2L54.9,28.1L54.9,28.1z M104.2,29.6
		c-0.4-1-1.6-2.9-4-2.9s-4.4,1.9-4.4,4.6c0,2.6,2,4.6,4.6,4.6c2.1,0,3.3-1.3,3.9-2.1l-1.6-1.1c-0.5,0.8-1.2,1.3-2.3,1.3
		c-1,0-1.8-0.5-2.2-1.4l6.2-2.6L104.2,29.6z M97.9,31.1c-0.1-1.8,1.4-2.7,2.4-2.7c0.8,0,1.5,0.4,1.7,1L97.9,31.1z M92.8,35.6h2V22
		h-2V35.6z M89.5,27.7L89.5,27.7c-0.5-0.5-1.4-1-2.5-1c-2.3,0-4.4,2-4.4,4.6s2.1,4.6,4.4,4.6c1.1,0,2-0.5,2.4-1.1h0.1v0.7
		c0,1.8-0.9,2.7-2.5,2.7c-1.2,0-2-0.9-2.3-1.6l-1.8,0.7c0.5,1.2,1.9,2.7,4.1,2.7c2.4,0,4.4-1.4,4.4-4.8v-8.3h-1.9
		C89.5,26.9,89.5,27.7,89.5,27.7z M87.2,34.1c-1.4,0-2.6-1.2-2.6-2.8c0-1.6,1.2-2.8,2.6-2.8s2.5,1.2,2.5,2.8
		C89.6,32.9,88.6,34.1,87.2,34.1z M113.7,22h-4.9v13.6h2v-5.2h2.8c2.3,0,4.5-1.6,4.5-4.2S115.9,22,113.7,22z M113.8,28.6h-2.9v-4.7
		h2.9c1.5,0,2.4,1.3,2.4,2.3C116.1,27.3,115.3,28.6,113.8,28.6z M126.3,26.6c-1.5,0-3,0.6-3.6,2.1l1.8,0.8c0.4-0.8,1.1-1,1.9-1
		c1.1,0,2.1,0.6,2.1,1.8v0.1c-0.4-0.2-1.2-0.5-2.1-0.5c-1.9,0-3.9,1.1-3.9,3.1c0,1.8,1.6,3,3.4,3c1.4,0,2.1-0.6,2.6-1.3h0.1v1.1h2
		v-5.2C130.4,28,128.6,26.6,126.3,26.6z M126.1,34.1c-0.7,0-1.6-0.3-1.6-1.2c0-1,1.2-1.5,2.2-1.5c0.9,0,1.3,0.2,1.9,0.5
		C128.3,33.2,127.2,34.1,126.1,34.1z M137.6,26.9l-2.3,5.9h-0.1l-2.4-5.9h-2.2l3.6,8.2l-2.1,4.6h2.1l5.6-12.8
		C139.8,26.9,137.6,26.9,137.6,26.9z M119.3,35.6h2V22h-2V35.6z"/>
	<g>
		
			<linearGradient id="SVGID_1_" gradientUnits="userSpaceOnUse" x1="26.6714" y1="2018.4786" x2="8.4089" y2="2036.7411" gradientTransform="matrix(1 0 0 1 0 -2006)">
			<stop  offset="0" style="stop-color:#00A0FF"/>
			<stop  offset="6.574450e-03" style="stop-color:#00A1FF"/>
			<stop  offset="0.2601" style="stop-color:#00BEFF"/>
			<stop  offset="0.5122" style="stop-color:#00D2FF"/>
			<stop  offset="0.7604" style="stop-color:#00DFFF"/>
			<stop  offset="1" style="stop-color:#00E3FF"/>
		</linearGradient>
		<path class="st4" d="M14.3,11.2c-0.3,0.3-0.5,0.9-0.5,1.5v24.1c0,0.7,0.2,1.2,0.5,1.5l0.1,0.1l13.5-13.5v-0.2v-0.2L14.3,11.2
			L14.3,11.2z"/>
		
			<linearGradient id="SVGID_2_" gradientUnits="userSpaceOnUse" x1="39.7319" y1="2030.7" x2="13.4011" y2="2030.7" gradientTransform="matrix(1 0 0 1 0 -2006)">
			<stop  offset="0" style="stop-color:#FFE000"/>
			<stop  offset="0.4087" style="stop-color:#FFBD00"/>
			<stop  offset="0.7754" style="stop-color:#FFA500"/>
			<stop  offset="1" style="stop-color:#FF9C00"/>
		</linearGradient>
		<path class="st5" d="M32.3,29.4l-4.5-4.5v-0.2v-0.2l4.5-4.5l0.1,0.1l5.3,3c1.5,0.9,1.5,2.3,0,3.1l-5.3,3L32.3,29.4z"/>
		
			<linearGradient id="SVGID_3_" gradientUnits="userSpaceOnUse" x1="29.9012" y1="2033.1989" x2="5.1358" y2="2057.9641" gradientTransform="matrix(1 0 0 1 0 -2006)">
			<stop  offset="0" style="stop-color:#FF3A44"/>
			<stop  offset="1" style="stop-color:#C31162"/>
		</linearGradient>
		<path class="st6" d="M32.4,29.3l-4.6-4.6L14.3,38.3c0.5,0.5,1.3,0.6,2.3,0.1L32.4,29.3"/>
		
			<linearGradient id="SVGID_4_" gradientUnits="userSpaceOnUse" x1="10.8309" y1="2009.1809" x2="21.8896" y2="2020.2395" gradientTransform="matrix(1 0 0 1 0 -2006)">
			<stop  offset="0" style="stop-color:#32A071"/>
			<stop  offset="6.850000e-02" style="stop-color:#2DA771"/>
			<stop  offset="0.4762" style="stop-color:#15CF74"/>
			<stop  offset="0.8009" style="stop-color:#06E775"/>
			<stop  offset="1" style="stop-color:#00F076"/>
		</linearGradient>
		<path class="st7" d="M32.4,20.1l-15.9-9c-0.9-0.5-1.8-0.5-2.3,0.1l13.6,13.6L32.4,20.1z"/>
		<g>
			<path class="st8" d="M32.3,29.2l-15.8,9c-0.9,0.5-1.7,0.5-2.2,0l0,0l-0.1,0.1l0,0l0.1,0.1l0,0c0.5,0.5,1.3,0.5,2.2,0l15.9-9
				L32.3,29.2z"/>
			<path class="st9" d="M14.3,38.1c-0.3-0.3-0.5-0.9-0.5-1.5v0.2c0,0.7,0.2,1.2,0.5,1.5V38.1L14.3,38.1z"/>
		</g>
		<path class="st9" d="M37.8,26.1l-5.4,3.1l0.1,0.1l5.3-3c0.8-0.4,1.1-1,1.1-1.6l0,0C38.8,25.2,38.4,25.8,37.8,26.1z"/>
		<path class="st10" d="M16.5,11.3l21.2,12.1c0.7,0.4,1.1,0.9,1.1,1.4l0,0c0-0.6-0.4-1.1-1.1-1.6L16.5,11.1
			c-1.5-0.9-2.8-0.1-2.8,1.6v0.2C13.8,11.1,15,10.4,16.5,11.3z"/>
	</g>
</g>
</svg>
