<?xml version="1.0" encoding="utf-8"?>
<!-- Generator: Adobe Illustrator 21.0.2, SVG Export Plug-In . SVG Version: 6.00 Build 0)  -->
<svg version="1.1" id="Layer_1" xmlns:sketch="http://www.bohemiancoding.com/sketch/ns"
	 xmlns="http://www.w3.org/2000/svg" xmlns:xlink="http://www.w3.org/1999/xlink" x="0px" y="0px" viewBox="0 0 20 20"
	 style="enable-background:new 0 0 20 20;" xml:space="preserve">
<style type="text/css">
	.st0{fill:#124F98;}
</style>
<title></title>
<desc></desc>
<g id="Page-1">
	<g id="Core" transform="translate(-296.000000, -296.000000)">
		<g id="language" transform="translate(296.000000, 296.000000)">
			<path id="Shape" class="st0" d="M10,0C4.5,0,0,4.5,0,10s4.5,10,10,10s10-4.5,10-10S15.5,0,10,0L10,0z M16.9,6H14
				c-0.3-1.3-0.8-2.4-1.4-3.6C14.4,3.1,16,4.3,16.9,6L16.9,6z M10,2c0.8,1.2,1.5,2.5,1.9,4H8.1C8.5,4.6,9.2,3.2,10,2L10,2z M2.3,12
				C2.1,11.4,2,10.7,2,10s0.1-1.4,0.3-2h3.4c-0.1,0.7-0.1,1.3-0.1,2s0.1,1.3,0.1,2H2.3L2.3,12z M3.1,14H6c0.3,1.3,0.8,2.4,1.4,3.6
				C5.6,16.9,4,15.7,3.1,14L3.1,14z M6,6H3.1c1-1.7,2.5-2.9,4.3-3.6C6.8,3.6,6.3,4.7,6,6L6,6z M10,18c-0.8-1.2-1.5-2.5-1.9-4h3.8
				C11.5,15.4,10.8,16.8,10,18L10,18z M12.3,12H7.7c-0.1-0.7-0.2-1.3-0.2-2s0.1-1.3,0.2-2h4.7c0.1,0.7,0.2,1.3,0.2,2
				S12.4,11.3,12.3,12L12.3,12z M12.6,17.6c0.6-1.1,1.1-2.3,1.4-3.6h2.9C16,15.7,14.4,16.9,12.6,17.6L12.6,17.6z M14.4,12
				c0.1-0.7,0.1-1.3,0.1-2s-0.1-1.3-0.1-2h3.4c0.2,0.6,0.3,1.3,0.3,2s-0.1,1.4-0.3,2H14.4L14.4,12z"/>
		</g>
	</g>
</g>
</svg>
