<?xml version="1.0" encoding="utf-8"?>
<!-- Generator: Adobe Illustrator 21.0.2, SVG Export Plug-In . SVG Version: 6.00 Build 0)  -->
<svg version="1.1" id="Layer_1" xmlns="http://www.w3.org/2000/svg" xmlns:xlink="http://www.w3.org/1999/xlink" x="0px" y="0px"
	 viewBox="0 0 512 512" style="enable-background:new 0 0 512 512;" xml:space="preserve">
<style type="text/css">
	.st0{fill:#007BFF;}
</style>
<g>
	<g>
		<g>
			<path class="st0" d="M504.1,365.5c-0.4-9.3-3-18.5-8.6-27.6c-8-13.3-16.2-26.5-24.3-39.7l19.9-8.6c25-10.8,28.2-43.2,5.8-58.2
				c-9.4-6.3-13.5-12.2-20.8-20.6c-3.1-3.6-6.5-6.9-8.8-11c-12.1-22,12.1-38,12.5-58.6c0.2-8.7-3.4-17.3-9.6-23.6
				c-1.5-1.5-21.5-13.5-21.9-10.5c0.1-0.5,1.3-10.2,1.3-10.2c3.4-25.8-24-45.3-49.3-35.2c-18.7,7.5-37.4,20.5-57.5,11.1
				c-18.3-8.6-26.6-28.4-36-43.8c-8.3-13.6-25.8-20-41.6-15.3c-18.4,5.4-24.7,24.2-46,26.3c-18.9,1.8-42.5-23.3-57.4-33.2
				c-22.4-15-53.6-1.5-56.2,24.4c-2.1,20.9,6.7,68.1-24.7,67.4c-27.5-0.6-45.3,27.1-32.2,49.9c6.1,10.6,27.5,34.1,16.2,47.5
				c-7,8.3-32.1,13-42.9,17.3c-25.3,10.1-29.5,42.3-7.6,58c19,13.6,44.6,23.3,42.6,49.1c-0.3,3.8-1.5,7.5-2.7,11.2
				c-4.1,12.4-8.7,22.5-14.7,34C26.5,387,42,413.9,67.7,415.8l-0.2,1.9c-2.6,25.9,25.4,44.6,50.4,33.8c14.2-6.2,28.4-12.3,42.6-18.5
				c9-3.9,21.4-12.1,30.9-10.5c20.1,3.4,26,25.9,39.4,37.1c6.5,5.5,15.1,8.5,23.9,8.5c2.7,0,25.6-7.5,23.9-8.7l64,45.7
				c21.9,15.7,53.5,3,56.9-22.8c1.6-12.6-1.6-24.3,8.4-33.3c9.4-8.5,22.4-13,34.5-16.7c19.2-5.8,44.3-9.2,53.1-28.5
				C501.1,390.9,504.7,378.2,504.1,365.5z"/>
		</g>
		<g>
			<g>
				<path class="st0" d="M260.9,409.4c-90.1,0-163.4-69.3-163.4-154.6s73.3-154.6,163.4-154.6s163.4,69.3,163.4,154.6
					S351,409.4,260.9,409.4z M260.3,120.4c-78.7,0-142.7,60.6-142.7,135s64,135,142.7,135S403,329.8,403,255.4
					S339,120.4,260.3,120.4z"/>
			</g>
		</g>
	</g>
</g>
</svg>
